<svg id="Capa_1" enable-background="new 0 0 520 520" height="512" viewBox="0 0 520 520" width="512" xmlns="http://www.w3.org/2000/svg"><g><path d="m215 335h90v70h-90z"/><path d="m275 280c0-8.271-6.729-15-15-15s-15 6.729-15 15v25h30z"/><path d="m475 125.016h-206.597l-56.861-92.85c-2.727-4.452-7.571-7.166-12.792-7.166h-153.75c-24.813 0-45 20.187-45 45v380c0 24.813 20.187 45 45 45h430c24.813 0 45-20.187 45-45v-279.984c0-24.814-20.187-45-45-45zm-140 294.984c0 8.284-6.716 15-15 15h-120c-8.284 0-15-6.716-15-15v-100c0-8.284 6.716-15 15-15h15v-25c0-24.813 20.187-45 45-45s45 20.187 45 45v25h15c8.284 0 15 6.716 15 15z"/><path d="m475 95.016v-5.016c0-24.813-20.187-45-45-45h-175.42l30.63 50.016z"/></g></svg>